<svg xmlns="http://www.w3.org/2000/svg" width="24.533" height="24.494" viewBox="0 0 24.533 24.494"><path d="M21.412 20l-2.754-3.79a1.727 1.727 0 00-2.412-.336l-1.91 1.387-.296-.232a16.608 16.608 0 01-3.511-3.492 16.7 16.7 0 01-2.245-4.432c-.043-.119-.085-.237-.127-.345l1.281-.93.63-.458a1.726 1.726 0 00.425-2.399L7.74 1.183A1.725 1.725 0 005.327.847l-1.07.781.022.03a5.4 5.4 0 00-.972 1.22 5.626 5.626 0 00-.553 1.305c-.998 3.513.12 7.046 3.858 12.191 5.166 7.112 10.188 7.433 10.405 7.444a5.6 5.6 0 001.418-.127 5.38 5.38 0 001.455-.545l.017.02 1.079-.766a1.729 1.729 0 00.426-2.4z" fill="#fff"/></svg>