<svg xmlns="http://www.w3.org/2000/svg" width="26.537" height="24.533" viewBox="0 0 26.537 24.533"><defs><clipPath id="a"><path fill="none" d="M0 0h26.537v20H0z"/></clipPath></defs><g clip-path="url(#a)"><path d="M25.445 4.684a1.333 1.333 0 00-.352.049l-1.339.366-1.391-3.369a3.034 3.034 0 00-2.6-1.731H6.752a3.035 3.035 0 00-2.6 1.731L2.763 5.094l-1.322-.362a1.361 1.361 0 00-.352-.048A1.081 1.081 0 00-.003 5.827v.785a1.408 1.408 0 001.41 1.4h.152l-.225.543a10.479 10.479 0 00-.664 3.346v6.697a1.408 1.408 0 001.411 1.4h1.842a1.408 1.408 0 001.41-1.4v-1.672H21.18v1.672a1.408 1.408 0 001.411 1.4h1.842a1.408 1.408 0 001.41-1.4v-6.693a10.463 10.463 0 00-.667-3.347l-.225-.543h.17a1.408 1.408 0 001.411-1.4v-.787a1.082 1.082 0 00-1.087-1.144zM3.776 7.258l2.1-5.1A1.824 1.824 0 017.433 1.12h11.643a1.824 1.824 0 011.557 1.038l2.1 5.1a.7.7 0 01-.7 1.038H4.476a.7.7 0 01-.7-1.038zm4.7 6.446a.564.564 0 01-.564.561h-4a.564.564 0 01-.565-.561v-1.913a.564.564 0 01.565-.561h4a.564.564 0 01.564.561zm14.656 0a.564.564 0 01-.564.561h-4a.564.564 0 01-.564-.561v-1.913a.564.564 0 01.564-.561h4a.564.564 0 01.564.561z" fill="#fff"/></g></svg>