<svg xmlns="http://www.w3.org/2000/svg" width="16.363" height="14.144" viewBox="0 0 16.363 14.144"><defs><style>.a{fill:#58595b}</style></defs><path class="a" d="M2.083.847h12.2a.424.424 0 100-.847h-12.2a.424.424 0 100 .847zm12.892.708H1.392A1.393 1.393 0 000 2.947v9.805a1.393 1.393 0 001.392 1.392h13.583a1.393 1.393 0 001.392-1.391V2.947a1.393 1.393 0 00-1.392-1.392zm-13.58.847h13.58a.545.545 0 01.545.545v9.806a.545.545 0 01-.545.545H1.392a.545.545 0 01-.545-.545V2.947a.545.545 0 01.545-.545z"/><path class="a" d="M2.761 11.76h5.694a.422.422 0 00.423-.424v-.647a1.233 1.233 0 00-.677-1.1l-1.09-.667a2.033 2.033 0 00.574-1.337l.05-1.292A1.948 1.948 0 005.776 4.36h-.338A1.953 1.953 0 003.48 6.309l.049 1.276a2.037 2.037 0 00.573 1.337l-1.06.653a1.237 1.237 0 00-.705 1.114v.647a.424.424 0 00.424.424zm2.317-2.443a.424.424 0 00.2-.378.42.42 0 00-.233-.362 1.2 1.2 0 01-.669-1.025l-.049-1.26a1.1 1.1 0 011.111-1.086h.338a1.1 1.1 0 011.109 1.07l-.049 1.276a1.2 1.2 0 01-.671 1.026.423.423 0 00-.032.74l1.63 1 .044.024a.386.386 0 01.221.349v.224H3.185v-.225a.415.415 0 01.261-.37zm5.57-2.982h2.99a.424.424 0 000-.847h-2.99a.424.424 0 100 .847zm0 2.148h2.99a.424.424 0 000-.847h-2.99a.424.424 0 100 .847zm0 2.15h2.99a.424.424 0 000-.847h-2.99a.424.424 0 100 .847z"/></svg>