<svg xmlns="http://www.w3.org/2000/svg" width="32" height="32" viewBox="0 0 32 32"><defs><style>.a{fill:#fff;}.b{fill:#f97d00;}</style></defs><g transform="translate(-192)"><g transform="translate(192)"><path class="a" d="M0,0H32V32H0Z"/></g><g transform="translate(200 8.21)"><path class="b" d="M16.972,19.5v6.275H13.335V19.921c0-1.471-.526-2.474-1.843-2.474a1.99,1.99,0,0,0-1.866,1.331,2.489,2.489,0,0,0-.121.887v6.111H5.866s.049-9.916,0-10.943H9.5v1.551l-.024.035H9.5v-.035a3.613,3.613,0,0,1,3.279-1.808C15.177,14.576,16.972,16.14,16.972,19.5ZM2.059,9.558a1.9,1.9,0,1,0-.048,3.782h.024a1.9,1.9,0,1,0,.024-3.782ZM.216,25.776H3.854V14.833H.216Z" transform="translate(0 -9.558)"/></g></g></svg>