<svg xmlns="http://www.w3.org/2000/svg" width="10.5" height="14" viewBox="0 0 10.5 14"><defs><style>.a{fill:#58595b}</style></defs><path class="a" d="M4.56 9.688l-.184 1.655a.292.292 0 00.29.324h1.167a.292.292 0 00.29-.324l-.184-1.655a1.154 1.154 0 00.477-.938 1.167 1.167 0 00-2.333 0 1.154 1.154 0 00.477.938zm.689-1.522a.581.581 0 01.252 1.106.292.292 0 00-.163.295l.169 1.516h-.515l.169-1.516a.292.292 0 00-.163-.295.581.581 0 01.252-1.106z"/><path class="a" d="M10.208 5.25h-.875V4.083a4.083 4.083 0 10-8.167 0V5.25H.291A.292.292 0 000 5.542v7.292A1.168 1.168 0 001.167 14h8.167a1.168 1.168 0 001.166-1.167V5.542a.292.292 0 00-.292-.292zM1.75 4.083a3.5 3.5 0 017 0V5.25h-.583V4.083a2.917 2.917 0 00-5.833 0V5.25H1.75zm5.833 0V5.25H2.917V4.083a2.333 2.333 0 114.667 0zm2.333 8.75a.584.584 0 01-.583.583H1.167a.584.584 0 01-.583-.583v-7h9.333z"/></svg>